<svg xmlns="http://www.w3.org/2000/svg" xmlns:xlink="http://www.w3.org/1999/xlink" contentStyleType="text/css" data-diagram-type="CLASS" height="620px" preserveAspectRatio="none" style="width:615px;height:620px;background:#FFFFFF;" version="1.1" viewBox="0 0 615 620" width="615px" zoomAndPan="magnify"><defs/><g><!--class User--><g class="entity" data-entity="User" data-source-line="8" data-uid="ent0002" id="entity_User"><rect fill="#F1F1F1" height="145.7813" rx="2.5" ry="2.5" style="stroke:#181818;stroke-width:0.5;" width="358.165" x="163.06" y="7"/><ellipse cx="260.831" cy="23" fill="#ADD1B2" rx="11" ry="11" style="stroke:#181818;stroke-width:1;"/><path d="M264.9404,29 L257.2216,29 L257.2216,16.6094 L264.9404,16.6094 L264.9404,18.7656 L259.6747,18.7656 L259.6747,21.4375 L264.4404,21.4375 L264.4404,23.5938 L259.6747,23.5938 L259.6747,26.8438 L264.9404,26.8438 L264.9404,29 Z " fill="#000000"/><text fill="#000000" font-family="sans-serif" font-size="14" lengthAdjust="spacing" textLength="154.123" x="281.331" y="27.8467">Usuario (CustomUser)</text><line style="stroke:#181818;stroke-width:0.5;" x1="164.06" x2="520.225" y1="39" y2="39"/><g data-visibility-modifier="IE_MANDATORY"><ellipse cx="174.06" cy="52.6484" fill="#000000" rx="3" ry="3" style="stroke:#000000;stroke-width:1;"/></g><text fill="#000000" font-family="sans-serif" font-size="14" lengthAdjust="spacing" textLength="88.751" x="183.06" y="55.9951">id : INT &#171;PK&#187;</text><line style="stroke:#181818;stroke-width:1;" x1="164.06" x2="520.225" y1="63.2969" y2="63.2969"/><g data-visibility-modifier="IE_MANDATORY"><ellipse cx="174.06" cy="76.9453" fill="#000000" rx="3" ry="3" style="stroke:#000000;stroke-width:1;"/></g><text fill="#000000" font-family="sans-serif" font-size="14" lengthAdjust="spacing" textLength="152.3457" x="183.06" y="80.292">username : VARCHAR</text><g data-visibility-modifier="IE_MANDATORY"><ellipse cx="174.06" cy="93.2422" fill="#000000" rx="3" ry="3" style="stroke:#000000;stroke-width:1;"/></g><text fill="#000000" font-family="sans-serif" font-size="14" lengthAdjust="spacing" textLength="120.7158" x="183.06" y="96.5889">email : VARCHAR</text><g data-visibility-modifier="IE_MANDATORY"><ellipse cx="174.06" cy="109.5391" fill="#000000" rx="3" ry="3" style="stroke:#000000;stroke-width:1;"/></g><text fill="#000000" font-family="sans-serif" font-size="14" lengthAdjust="spacing" textLength="119.8477" x="183.06" y="112.8857">password : HASH</text><g data-visibility-modifier="IE_MANDATORY"><ellipse cx="174.06" cy="125.8359" fill="#000000" rx="3" ry="3" style="stroke:#000000;stroke-width:1;"/></g><text fill="#000000" font-family="sans-serif" font-size="14" lengthAdjust="spacing" textLength="332.165" x="183.06" y="129.1826">tipo_usuario : ENUM (Dentista, Gestor, Cadista)</text><text fill="#000000" font-family="sans-serif" font-size="14" lengthAdjust="spacing" textLength="184.3584" x="183.06" y="145.4795">data_cadastro : DATETIME</text></g><!--class Pedido--><g class="entity" data-entity="Pedido" data-source-line="18" data-uid="ent0003" id="entity_Pedido"><rect fill="#F1F1F1" height="194.6719" rx="2.5" ry="2.5" style="stroke:#181818;stroke-width:0.5;" width="385.1738" x="149.56" y="212.78"/><ellipse cx="270.4194" cy="228.78" fill="#ADD1B2" rx="11" ry="11" style="stroke:#181818;stroke-width:1;"/><path d="M274.5288,234.78 L266.81,234.78 L266.81,222.3894 L274.5288,222.3894 L274.5288,224.5456 L269.2631,224.5456 L269.2631,227.2175 L274.0288,227.2175 L274.0288,229.3738 L269.2631,229.3738 L269.2631,232.6238 L274.5288,232.6238 L274.5288,234.78 Z " fill="#000000"/><text fill="#000000" font-family="sans-serif" font-size="14" lengthAdjust="spacing" textLength="134.9551" x="290.9194" y="233.6267">Pedido (Lab_Order)</text><line style="stroke:#181818;stroke-width:0.5;" x1="150.56" x2="533.7338" y1="244.78" y2="244.78"/><g data-visibility-modifier="IE_MANDATORY"><ellipse cx="160.56" cy="258.4284" fill="#000000" rx="3" ry="3" style="stroke:#000000;stroke-width:1;"/></g><text fill="#000000" font-family="sans-serif" font-size="14" lengthAdjust="spacing" textLength="88.751" x="169.56" y="261.7751">id : INT &#171;PK&#187;</text><line style="stroke:#181818;stroke-width:1;" x1="150.56" x2="533.7338" y1="269.0769" y2="269.0769"/><g data-visibility-modifier="IE_MANDATORY"><ellipse cx="160.56" cy="282.7253" fill="#000000" rx="3" ry="3" style="stroke:#000000;stroke-width:1;"/></g><text fill="#000000" font-family="sans-serif" font-size="14" lengthAdjust="spacing" textLength="152.4756" x="169.56" y="286.072">id_dentista : INT &#171;FK&#187;</text><g data-visibility-modifier="IE_MANDATORY"><ellipse cx="160.56" cy="299.0222" fill="#000000" rx="3" ry="3" style="stroke:#000000;stroke-width:1;"/></g><text fill="#000000" font-family="sans-serif" font-size="14" lengthAdjust="spacing" textLength="189.4375" x="169.56" y="302.3689">nome_paciente : VARCHAR</text><g data-visibility-modifier="IE_MANDATORY"><ellipse cx="160.56" cy="315.3191" fill="#000000" rx="3" ry="3" style="stroke:#000000;stroke-width:1;"/></g><text fill="#000000" font-family="sans-serif" font-size="14" lengthAdjust="spacing" textLength="304.8623" x="169.56" y="318.6657">tipo_servico : VARCHAR (Ex: Coroa, Faceta)</text><text fill="#000000" font-family="sans-serif" font-size="14" lengthAdjust="spacing" textLength="317.4951" x="169.56" y="334.9626">dentes_selecionados : JSON (Ex: [11, 12, 21])</text><text fill="#000000" font-family="sans-serif" font-size="14" lengthAdjust="spacing" textLength="251.1455" x="169.56" y="351.2595">cor_escala : VARCHAR (Ex: A2, BL3)</text><g data-visibility-modifier="IE_MANDATORY"><ellipse cx="160.56" cy="364.2097" fill="#000000" rx="3" ry="3" style="stroke:#000000;stroke-width:1;"/></g><text fill="#000000" font-family="sans-serif" font-size="14" lengthAdjust="spacing" textLength="359.1738" x="169.56" y="367.5564">status : ENUM (Pendente, Em Produ&#231;&#227;o, Conclu&#237;do)</text><text fill="#000000" font-family="sans-serif" font-size="14" lengthAdjust="spacing" textLength="174.2754" x="169.56" y="383.8532">data_criacao : DATETIME</text><text fill="#000000" font-family="sans-serif" font-size="14" lengthAdjust="spacing" textLength="242.1152" x="169.56" y="400.1501">data_entrega_prevista : DATETIME</text></g><!--class Anexo--><g class="entity" data-entity="Anexo" data-source-line="31" data-uid="ent0004" id="entity_Anexo"><rect fill="#F1F1F1" height="145.7813" rx="2.5" ry="2.5" style="stroke:#181818;stroke-width:0.5;" width="352.2861" x="7" y="467.45"/><ellipse cx="84.5742" cy="483.45" fill="#ADD1B2" rx="11" ry="11" style="stroke:#181818;stroke-width:1;"/><path d="M88.6836,489.45 L80.9648,489.45 L80.9648,477.0594 L88.6836,477.0594 L88.6836,479.2156 L83.418,479.2156 L83.418,481.8875 L88.1836,481.8875 L88.1836,484.0438 L83.418,484.0438 L83.418,487.2938 L88.6836,487.2938 L88.6836,489.45 Z " fill="#000000"/><text fill="#000000" font-family="sans-serif" font-size="14" lengthAdjust="spacing" textLength="188.6377" x="105.0742" y="488.2967">Anexo (Order_Attachment)</text><line style="stroke:#181818;stroke-width:0.5;" x1="8" x2="358.2861" y1="499.45" y2="499.45"/><g data-visibility-modifier="IE_MANDATORY"><ellipse cx="18" cy="513.0984" fill="#000000" rx="3" ry="3" style="stroke:#000000;stroke-width:1;"/></g><text fill="#000000" font-family="sans-serif" font-size="14" lengthAdjust="spacing" textLength="88.751" x="27" y="516.4451">id : INT &#171;PK&#187;</text><line style="stroke:#181818;stroke-width:1;" x1="8" x2="358.2861" y1="523.7469" y2="523.7469"/><g data-visibility-modifier="IE_MANDATORY"><ellipse cx="18" cy="537.3953" fill="#000000" rx="3" ry="3" style="stroke:#000000;stroke-width:1;"/></g><text fill="#000000" font-family="sans-serif" font-size="14" lengthAdjust="spacing" textLength="143.0898" x="27" y="540.742">id_pedido : INT &#171;FK&#187;</text><g data-visibility-modifier="IE_MANDATORY"><ellipse cx="18" cy="553.6922" fill="#000000" rx="3" ry="3" style="stroke:#000000;stroke-width:1;"/></g><text fill="#000000" font-family="sans-serif" font-size="14" lengthAdjust="spacing" textLength="326.2861" x="27" y="557.0389">caminho_arquivo : VARCHAR (Link do Arquivo)</text><g data-visibility-modifier="IE_MANDATORY"><ellipse cx="18" cy="569.9891" fill="#000000" rx="3" ry="3" style="stroke:#000000;stroke-width:1;"/></g><text fill="#000000" font-family="sans-serif" font-size="14" lengthAdjust="spacing" textLength="276.7324" x="27" y="573.3357">tipo_arquivo : VARCHAR (STL, PLY, OBJ)</text><text fill="#000000" font-family="sans-serif" font-size="14" lengthAdjust="spacing" textLength="150.7393" x="27" y="589.6326">tamanho_mb : FLOAT</text><text fill="#000000" font-family="sans-serif" font-size="14" lengthAdjust="spacing" textLength="171.1924" x="27" y="605.9295">data_upload : DATETIME</text></g><!--class Historico--><g class="entity" data-entity="Historico" data-source-line="41" data-uid="ent0005" id="entity_Historico"><rect fill="#F1F1F1" height="129.4844" rx="2.5" ry="2.5" style="stroke:#181818;stroke-width:0.5;" width="214.6377" x="393.82" y="475.6"/><ellipse cx="440.2463" cy="491.6" fill="#ADD1B2" rx="11" ry="11" style="stroke:#181818;stroke-width:1;"/><path d="M444.3556,497.6 L436.6369,497.6 L436.6369,485.2094 L444.3556,485.2094 L444.3556,487.3656 L439.09,487.3656 L439.09,490.0375 L443.8556,490.0375 L443.8556,492.1938 L439.09,492.1938 L439.09,495.4438 L444.3556,495.4438 L444.3556,497.6 Z " fill="#000000"/><text fill="#000000" font-family="sans-serif" font-size="14" lengthAdjust="spacing" textLength="113.2852" x="460.7463" y="496.4467">Historico_Status</text><line style="stroke:#181818;stroke-width:0.5;" x1="394.82" x2="607.4577" y1="507.6" y2="507.6"/><g data-visibility-modifier="IE_MANDATORY"><ellipse cx="404.82" cy="521.2484" fill="#000000" rx="3" ry="3" style="stroke:#000000;stroke-width:1;"/></g><text fill="#000000" font-family="sans-serif" font-size="14" lengthAdjust="spacing" textLength="88.751" x="413.82" y="524.5951">id : INT &#171;PK&#187;</text><line style="stroke:#181818;stroke-width:1;" x1="394.82" x2="607.4577" y1="531.8969" y2="531.8969"/><g data-visibility-modifier="IE_MANDATORY"><ellipse cx="404.82" cy="545.5453" fill="#000000" rx="3" ry="3" style="stroke:#000000;stroke-width:1;"/></g><text fill="#000000" font-family="sans-serif" font-size="14" lengthAdjust="spacing" textLength="143.0898" x="413.82" y="548.892">id_pedido : INT &#171;FK&#187;</text><g data-visibility-modifier="IE_MANDATORY"><ellipse cx="404.82" cy="561.8422" fill="#000000" rx="3" ry="3" style="stroke:#000000;stroke-width:1;"/></g><text fill="#000000" font-family="sans-serif" font-size="14" lengthAdjust="spacing" textLength="166.4141" x="413.82" y="565.1889">status_novo : VARCHAR</text><g data-visibility-modifier="IE_MANDATORY"><ellipse cx="404.82" cy="578.1391" fill="#000000" rx="3" ry="3" style="stroke:#000000;stroke-width:1;"/></g><text fill="#000000" font-family="sans-serif" font-size="14" lengthAdjust="spacing" textLength="188.6377" x="413.82" y="581.4857">data_mudanca : DATETIME</text><text fill="#000000" font-family="sans-serif" font-size="14" lengthAdjust="spacing" textLength="129.9785" x="413.82" y="597.7826">observacao : TEXT</text></g><!--link User to Pedido--><g class="link" data-entity-1="User" data-entity-2="Pedido" data-link-type="crowfoot" data-source-line="53" data-uid="lnk6" id="link_User_Pedido"><path codeLine="53" d="M342.14,161.05 C342.14,179.88 342.14,174.44 342.14,194.3" fill="none" id="User-Pedido" style="stroke:#181818;stroke-width:1;stroke-dasharray:7,7;"/><line style="stroke:#181818;stroke-width:1;" x1="338.14" x2="346.14" y1="157.05" y2="157.05"/><line style="stroke:#181818;stroke-width:1;" x1="338.14" x2="346.14" y1="160.05" y2="160.05"/><line style="stroke:#181818;stroke-width:1;" x1="342.14" x2="342.14" y1="161.05" y2="153.05"/><line style="stroke:#181818;stroke-width:1;" x1="342.14" x2="348.14" y1="204.3" y2="212.3"/><line style="stroke:#181818;stroke-width:1;" x1="342.14" x2="336.14" y1="204.3" y2="212.3"/><line style="stroke:#181818;stroke-width:1;" x1="342.14" x2="342.14" y1="204.3" y2="212.3"/><ellipse cx="342.14" cy="198.3" fill="none" rx="4" ry="4" style="stroke:#181818;stroke-width:1;"/><text fill="#000000" font-family="sans-serif" font-size="13" lengthAdjust="spacing" textLength="83.9033" x="258.14" y="178.7369">1:N (Solicita)</text></g><!--link Pedido to Anexo--><g class="link" data-entity-1="Pedido" data-entity-2="Anexo" data-link-type="crowfoot" data-source-line="56" data-uid="lnk7" id="link_Pedido_Anexo"><path codeLine="56" d="M254.42,415.75 C254.42,435.6 254.42,440.17 254.42,459" fill="none" id="Pedido-Anexo" style="stroke:#181818;stroke-width:1;stroke-dasharray:7,7;"/><line style="stroke:#181818;stroke-width:1;" x1="250.42" x2="258.42" y1="411.75" y2="411.75"/><line style="stroke:#181818;stroke-width:1;" x1="250.42" x2="258.42" y1="414.75" y2="414.75"/><line style="stroke:#181818;stroke-width:1;" x1="254.42" x2="254.42" y1="415.75" y2="407.75"/><line style="stroke:#181818;stroke-width:1;" x1="254.42" x2="260.42" y1="459" y2="467"/><line style="stroke:#181818;stroke-width:1;" x1="254.42" x2="248.42" y1="459" y2="467"/><line style="stroke:#181818;stroke-width:1;" x1="254.42" x2="254.42" y1="459" y2="467"/><line style="stroke:#181818;stroke-width:1;" x1="258.42" x2="250.42" y1="457" y2="457"/><text fill="#000000" font-family="sans-serif" font-size="13" lengthAdjust="spacing" textLength="87.6802" x="166.42" y="433.4469">1:N (Cont&#233;m)</text></g><!--link Pedido to Historico--><g class="link" data-entity-1="Pedido" data-entity-2="Historico" data-link-type="crowfoot" data-source-line="59" data-uid="lnk8" id="link_Pedido_Historico"><path codeLine="59" d="M464.28,415.75 C464.28,438.54 464.28,436.28 464.28,457.26" fill="none" id="Pedido-Historico" style="stroke:#181818;stroke-width:1;stroke-dasharray:7,7;"/><line style="stroke:#181818;stroke-width:1;" x1="460.28" x2="468.28" y1="411.75" y2="411.75"/><line style="stroke:#181818;stroke-width:1;" x1="460.28" x2="468.28" y1="414.75" y2="414.75"/><line style="stroke:#181818;stroke-width:1;" x1="464.28" x2="464.28" y1="415.75" y2="407.75"/><line style="stroke:#181818;stroke-width:1;" x1="464.28" x2="470.28" y1="467.26" y2="475.26"/><line style="stroke:#181818;stroke-width:1;" x1="464.28" x2="458.28" y1="467.26" y2="475.26"/><line style="stroke:#181818;stroke-width:1;" x1="464.28" x2="464.28" y1="467.26" y2="475.26"/><ellipse cx="464.28" cy="461.26" fill="none" rx="4" ry="4" style="stroke:#181818;stroke-width:1;"/><text fill="#000000" font-family="sans-serif" font-size="13" lengthAdjust="spacing" textLength="90.4414" x="373.28" y="437.5669">1:N (Rastreia)</text></g><!--SRC=[dLJBRjD05DtdAwwoQLBIIYcxgAhavj6a974KEnK88Ul6dYQZsXupC-w3bXKBlWEng5YmuXFyOzondQSAIEoiUyvzd7Fd-W2EZewWROzxWulPrCg-Pbzik1euCsjea8gwuN624YC8USpqGy90IBqKMu1QOY3kUBo0QmmLsq8Iz6zmmHpz43AGpDSOBq9MgHpaJRjZTz2nEbq7QYxEMOYgdhUii5Xp_G3LcKfHSW6rTggqY6QAoNeLK87vWiSAm24Fe0M3iGkdfvCtPsSKeW8KJuaHOyG8lRAcxRurDL4M8GztGmagTIUaATEtdBu9QPu8BorxjsZCsGXg7JEKqjY02qR3o0QqCJ21EgK4gD7pCK2bfKdfM6xN7OowbSyRCHCMy82q377ksJ9OIId3VnN30oyeswy9lO9m68k8UUGp9yAUsbm7-N3BVR51eDQzRq5RI45QUkYpKeB9LqGFcSz5J1jLb7FfsECYuNspsO3cIGDEcXyCtnVIOyh74FTBMqGw7xusf4EQMATgRUA4nNcV1dGZc4WHfDbpzbsGboBsmpJx6OYDdPAZZpjkbWXLa6o1NYBPRUd9IuPRCRidltElFKjhz9SHOONj1VWlrvDYEVkU-nZnU2ayb1zJVhlZxP37Dq0fLW7LrtjuWUkummPCXkyQO9zV6gR624tTQ4wqtj2st9NaD0a51dyGskVcGTAIFIUtEnUu3lwlo69rNYosXpP0Fb2K1XZxkBiTCJUlhToQstthcYcBMvzsXrPxO8-j4LszxHHtVW2pY6uvpRxbLxuwiJea8c3qC_b4LpwQ3Go_E1DLoI__wUduM3okJgS5rMQBNgaZGkvpIg-MbKiyBwOtfVBLg_AjIdEruAG9l891V5slb4ccnTDZ-KnM7UYLwkn7jDz0imZI29OqU_OhjvmQvWPbpwYsAzBGcxsigaxDNuDnclit]--></g></svg>