<svg xmlns="http://www.w3.org/2000/svg" xmlns:xlink="http://www.w3.org/1999/xlink" contentStyleType="text/css" data-diagram-type="DESCRIPTION" height="464px" preserveAspectRatio="none" style="width:658px;height:464px;background:#FFFFFF;" version="1.1" viewBox="0 0 658 464" width="658px" zoomAndPan="magnify"><defs/><g><!--cluster Fluxo de Sistema Gestorial--><g class="cluster" data-entity="Fluxo de Sistema Gestorial" data-source-line="8" data-uid="ent0005" id="cluster_Fluxo de Sistema Gestorial"><rect fill="none" height="451" rx="2.5" ry="2.5" style="stroke:#181818;stroke-width:1;" width="540.36" x="112.01" y="7"/><text fill="#000000" font-family="sans-serif" font-size="14" font-weight="bold" lengthAdjust="spacing" textLength="212.1328" x="276.1236" y="21.9951">Fluxo de Sistema Gestorial</text></g><!--entity UC2--><g class="entity" data-entity="UC2" data-source-line="10" data-uid="ent0006" id="entity_UC2"><ellipse cx="234.1844" cy="60.0009" fill="#F1F1F1" rx="77.9544" ry="17.9909" style="stroke:#181818;stroke-width:0.5;"/><text fill="#000000" font-family="sans-serif" font-size="14" lengthAdjust="spacing" textLength="125.8291" x="171.2699" y="64.6493">Criar Novo Pedido</text></g><!--entity UC3--><g class="entity" data-entity="UC3" data-source-line="11" data-uid="ent0007" id="entity_UC3"><ellipse cx="550.8576" cy="62.0015" fill="#F1F1F1" rx="85.5076" ry="19.5015" style="stroke:#181818;stroke-width:0.5;"/><text fill="#000000" font-family="sans-serif" font-size="14" lengthAdjust="spacing" textLength="143.4932" x="479.111" y="66.65">Fazer Upload de STL</text></g><!--entity UC4--><g class="entity" data-entity="UC4" data-source-line="12" data-uid="ent0008" id="entity_UC4"><ellipse cx="234.1836" cy="129.9987" fill="#F1F1F1" rx="73.9436" ry="17.1887" style="stroke:#181818;stroke-width:0.5;"/><text fill="#000000" font-family="sans-serif" font-size="14" lengthAdjust="spacing" textLength="116.1563" x="176.1055" y="134.6472">Consultar Status</text></g><!--entity UC5--><g class="entity" data-entity="UC5" data-source-line="13" data-uid="ent0009" id="entity_UC5"><ellipse cx="234.1754" cy="204.9971" fill="#F1F1F1" rx="99.9854" ry="22.3971" style="stroke:#181818;stroke-width:0.5;"/><text fill="#000000" font-family="sans-serif" font-size="14" lengthAdjust="spacing" textLength="176.0254" x="146.1627" y="209.6455">Aprovar/Reprovar Pedido</text></g><!--entity UC1--><g class="entity" data-entity="UC1" data-source-line="14" data-uid="ent0010" id="entity_UC1"><ellipse cx="234.1844" cy="277.0036" fill="#F1F1F1" rx="60.1444" ry="14.5236" style="stroke:#181818;stroke-width:0.5;"/><text fill="#000000" font-family="sans-serif" font-size="14" lengthAdjust="spacing" textLength="80.8145" x="193.7772" y="281.6521">Fazer Login</text></g><!--entity UC6--><g class="entity" data-entity="UC6" data-source-line="15" data-uid="ent0011" id="entity_UC6"><ellipse cx="234.178" cy="343.0016" fill="#F1F1F1" rx="68.658" ry="16.1316" style="stroke:#181818;stroke-width:0.5;"/><text fill="#000000" font-family="sans-serif" font-size="14" lengthAdjust="spacing" textLength="102.9766" x="182.6897" y="347.65">Baixar Arquivo</text></g><!--entity UC7--><g class="entity" data-entity="UC7" data-source-line="16" data-uid="ent0012" id="entity_UC7"><ellipse cx="234.1823" cy="418.0045" fill="#F1F1F1" rx="106.1723" ry="23.6345" style="stroke:#181818;stroke-width:0.5;"/><text fill="#000000" font-family="sans-serif" font-size="14" lengthAdjust="spacing" textLength="189.5742" x="139.3952" y="422.6529">Entregar Projeto Finalizado</text></g><!--entity Doutor--><g class="entity" data-entity="Doutor" data-source-line="4" data-uid="ent0002" id="entity_Doutor"><ellipse cx="35.5039" cy="71.35" fill="#F1F1F1" rx="8" ry="8" style="stroke:#181818;stroke-width:0.5;"/><path d="M35.5039,79.35 L35.5039,106.35 M22.5039,87.35 L48.5039,87.35 M35.5039,106.35 L22.5039,121.35 M35.5039,106.35 L48.5039,121.35" fill="none" style="stroke:#181818;stroke-width:0.5;"/><text fill="#000000" font-family="sans-serif" font-size="14" lengthAdjust="spacing" textLength="59.0078" x="6" y="135.8451">Dentista</text></g><!--entity Gestor--><g class="entity" data-entity="Gestor" data-source-line="5" data-uid="ent0003" id="entity_Gestor"><ellipse cx="35.5032" cy="194.35" fill="#F1F1F1" rx="8" ry="8" style="stroke:#181818;stroke-width:0.5;"/><path d="M35.5032,202.35 L35.5032,229.35 M22.5032,210.35 L48.5032,210.35 M35.5032,229.35 L22.5032,244.35 M35.5032,229.35 L48.5032,244.35" fill="none" style="stroke:#181818;stroke-width:0.5;"/><text fill="#000000" font-family="sans-serif" font-size="14" lengthAdjust="spacing" textLength="46.5664" x="12.22" y="258.8451">Gestor</text></g><!--entity Cadista--><g class="entity" data-entity="Cadista" data-source-line="6" data-uid="ent0004" id="entity_Cadista"><ellipse cx="35.5038" cy="317.35" fill="#F1F1F1" rx="8" ry="8" style="stroke:#181818;stroke-width:0.5;"/><path d="M35.5038,325.35 L35.5038,352.35 M22.5038,333.35 L48.5038,333.35 M35.5038,352.35 L22.5038,367.35 M35.5038,352.35 L48.5038,367.35" fill="none" style="stroke:#181818;stroke-width:0.5;"/><text fill="#000000" font-family="sans-serif" font-size="14" lengthAdjust="spacing" textLength="53.8877" x="8.56" y="381.8451">T&#233;cnico</text></g><!--link Doutor to UC1--><g class="link" data-entity-1="Doutor" data-entity-2="UC1" data-link-type="dependency" data-source-line="19" data-uid="lnk13" id="link_Doutor_UC1"><path d="M58.7,139.58 C70.84,161.73 85.49,190.37 96.01,217 C100.76,229.04 94.7,236.01 104.01,245 C122.63,262.97 143.7481,270.4384 168.2881,274.1684" fill="none" id="Doutor-to-UC1" style="stroke:#181818;stroke-width:1;"/><polygon fill="#181818" points="174.22,275.07,165.9233,269.763,169.2768,274.3186,164.7211,277.6721,174.22,275.07" style="stroke:#181818;stroke-width:1;"/></g><!--link Doutor to UC2--><g class="link" data-entity-1="Doutor" data-entity-2="UC2" data-link-type="dependency" data-source-line="20" data-uid="lnk14" id="link_Doutor_UC2"><path d="M65.5,91.89 C74.86,89.13 85.32,86.24 95.01,84 C118.61,78.54 138.8227,74.693 161.9427,70.813" fill="none" id="Doutor-to-UC2" style="stroke:#181818;stroke-width:1;"/><polygon fill="#181818" points="167.86,69.82,158.3221,67.3647,162.929,70.6475,159.6461,75.2544,167.86,69.82" style="stroke:#181818;stroke-width:1;"/></g><!--link Doutor to UC4--><g class="link" data-entity-1="Doutor" data-entity-2="UC4" data-link-type="dependency" data-source-line="21" data-uid="lnk15" id="link_Doutor_UC4"><path d="M65.1,105.22 C92.7,109.29 129.4442,114.7043 164.8942,119.9343" fill="none" id="Doutor-to-UC4" style="stroke:#181818;stroke-width:1;"/><polygon fill="#181818" points="170.83,120.81,162.5102,115.5393,165.8835,120.0802,161.3426,123.4536,170.83,120.81" style="stroke:#181818;stroke-width:1;"/></g><!--link UC2 to UC3--><g class="link" data-entity-1="UC2" data-entity-2="UC3" data-link-type="dependency" data-source-line="25" data-uid="lnk16" id="link_UC2_UC3"><path d="M312.56,60.49 C358.79,60.79 411.5501,61.1221 459.0301,61.4221" fill="none" id="UC2-to-UC3" style="stroke:#181818;stroke-width:1;stroke-dasharray:7,7;"/><polygon fill="#181818" points="465.03,61.46,456.0555,57.4032,460.0301,61.4284,456.0049,65.4031,465.03,61.46" style="stroke:#181818;stroke-width:1;"/><text fill="#000000" font-family="sans-serif" font-size="13" lengthAdjust="spacing" textLength="63.0068" x="371.35" y="57.0669">&#171;include&#187;</text></g><!--link Gestor to UC1--><g class="link" data-entity-1="Gestor" data-entity-2="UC1" data-link-type="dependency" data-source-line="28" data-uid="lnk17" id="link_Gestor_UC1"><path d="M59.21,231.43 C72.26,235.61 88.99,240.81 104.01,245 C132.38,252.92 158.694,259.4966 183.824,265.4966" fill="none" id="Gestor-to-UC1" style="stroke:#181818;stroke-width:1;"/><polygon fill="#181818" points="189.66,266.89,181.835,260.9093,184.7967,265.7288,179.9771,268.6906,189.66,266.89" style="stroke:#181818;stroke-width:1;"/></g><!--link Gestor to UC4--><g class="link" data-entity-1="Gestor" data-entity-2="UC4" data-link-type="dependency" data-source-line="29" data-uid="lnk18" id="link_Gestor_UC4"><path d="M59.17,199.5 C71.41,187.55 87.4,173.89 104.01,165 C125.41,153.54 145.0327,146.9977 167.6627,141.6177" fill="none" id="Gestor-to-UC4" style="stroke:#181818;stroke-width:1;"/><polygon fill="#181818" points="173.5,140.23,163.8189,138.4201,168.6356,141.3865,165.6692,146.2032,173.5,140.23" style="stroke:#181818;stroke-width:1;"/></g><!--link Gestor to UC5--><g class="link" data-entity-1="Gestor" data-entity-2="UC5" data-link-type="dependency" data-source-line="30" data-uid="lnk19" id="link_Gestor_UC5"><path d="M59.07,221.82 C79.55,219.84 105.1879,217.3679 135.8779,214.3979" fill="none" id="Gestor-to-UC5" style="stroke:#181818;stroke-width:1;"/><polygon fill="#181818" points="141.85,213.82,132.5066,210.7055,136.8732,214.3016,133.2771,218.6683,141.85,213.82" style="stroke:#181818;stroke-width:1;"/></g><!--link Cadista to UC1--><g class="link" data-entity-1="Cadista" data-entity-2="UC1" data-link-type="dependency" data-source-line="33" data-uid="lnk20" id="link_Cadista_UC1"><path d="M62.94,329.92 C75.07,322.67 89.88,314.61 104.01,309 C129.99,298.69 154.402,292.2315 179.112,286.9615" fill="none" id="Cadista-to-UC1" style="stroke:#181818;stroke-width:1;"/><polygon fill="#181818" points="184.98,285.71,175.3436,283.6752,180.09,286.7529,177.0123,291.4993,184.98,285.71" style="stroke:#181818;stroke-width:1;"/></g><!--link Cadista to UC6--><g class="link" data-entity-1="Cadista" data-entity-2="UC6" data-link-type="dependency" data-source-line="34" data-uid="lnk21" id="link_Cadista_UC6"><path d="M62.62,346.47 C88.74,345.94 124.0212,345.222 159.4212,344.502" fill="none" id="Cadista-to-UC6" style="stroke:#181818;stroke-width:1;"/><polygon fill="#181818" points="165.42,344.38,156.3405,340.5638,160.421,344.4817,156.5032,348.5622,165.42,344.38" style="stroke:#181818;stroke-width:1;"/></g><!--link Cadista to UC7--><g class="link" data-entity-1="Cadista" data-entity-2="UC7" data-link-type="dependency" data-source-line="35" data-uid="lnk22" id="link_Cadista_UC7"><path d="M62.83,359.51 C75.2,365.18 90.22,371.77 104.01,377 C124.79,384.89 142.1147,390.7453 162.9147,397.2653" fill="none" id="Cadista-to-UC7" style="stroke:#181818;stroke-width:1;"/><polygon fill="#181818" points="168.64,399.06,161.2485,392.5511,163.8689,397.5644,158.8556,400.1849,168.64,399.06" style="stroke:#181818;stroke-width:1;"/></g><!--SRC=[RL9BJYCn4DttAKhP018V0I588nGfX0H50eAIS82IksWCZjtu4q4Gfs61O3ydoCN6TdTdP4WlsgNtNhqgLrdGlGMhGFFYmKBEDJ7BbSpC4vSbQfn3YUm92vhQLq4GQ9I5e2n3PfM6rWL9out55g212-Kys52NPFmPYIfiYDdgYqdELAJwc8VyBAiBGMiet8k2d63g2PfZdSrHjE0j0__5dpF4q7XztrCQRjH2mItbFAzyx_f7gMo8Iz9mLmg5UNIVNTN2unz-IXedhFUSMhJErAfsgkgLMYrG7qoe2jBQ9vjgNwc2orfmc0hEaRzuZvv-TdpHc7HIpK1QJKMefDKZ-QKDkKJ1bxYkUfh5Z2sOaC3Lv-el6SXLivP0LI7ixNNNFIJGqM-e_N_aQ-EFk9-HPCBvStiCfHCgb2hGzuKCyzNtt6zufquR6UDfleHdHn3U5R2uj3BER1V6vvFHPMysdenwruERsG3ytgFM-h6vkBBev1k4_VtGrJ7yWRCpNdNGxMw-UFti0bM5oSKJgFqREjbisZpOmDLnOfjYdGtOQVR-3m00]--></g></svg>